/* XPM */
static char *_e8014fbfa674315ded15c3b10fa015a[] = {
/* columns rows colors chars-per-pixel */
"64 64 57 1 ",
"  c #010101",
". c #0B0B0B",
"X c #0C0C0C",
"o c #0E0E0E",
"O c gray6",
"+ c #101010",
"@ c #111111",
"# c black",
"$ c #202020",
"% c #2C2C2C",
"& c gray22",
"* c #400000",
"= c #4C0000",
"- c #580000",
"; c #640000",
": c #700000",
"> c #7C0000",
", c #543C1C",
"< c #044000",
"1 c #044C00",
"2 c #045800",
"3 c #046400",
"4 c #047000",
"5 c #047C00",
"6 c #404000",
"7 c #585400",
"8 c #706C00",
"9 c #744C28",
"0 c #400040",
"q c #480048",
"w c #580058",
"e c #6C0070",
"r c #484848",
"t c gray33",
"y c #646464",
"u c #7C7C7C",
"i c #880000",
"p c #980000",
"a c #A40000",
"s c #B00000",
"d c #BC0000",
"f c #C80000",
"g c #D40000",
"h c #E00000",
"j c #EC0000",
"k c #FC0000",
"l c #9C4C00",
"z c #B45400",
"x c #E46C00",
"c c #049800",
"v c #848400",
"b c #9C9C00",
"n c #840084",
"m c #980088",
"M c #9C009C",
"N c #A800FC",
"B c #989898",
/* pixels */
"################################################################",
"################################################>>>>############",
"###############################################ip:-->###########",
"##############################################ssp:**>###########",
"##############################################ssp:**-->>########",
"############aa>##############################ip>:-***-->########",
"###########addsi#############################pp:-* **=->########",
"###########sddssi###########################ppi:** *=->#########",
"#######;>ppsddsssi##########################pp:-- ***=-#########",
"######;>pp>>psisssi#####jjhs#skkgda#kjdi##iipi:* *** *-#########",
"######;>pp*->piisssi###sjhkhp>pppiiggdi;d;:pp:*#0ewq *->########",
"#######;pp;-;pnwwsssi;>shhjpfs;ggpdgg>si;=>::*##eeq0##->########",
"######;>p-p>;>Me0isss>pffjijfs>:pikp;j:p;;=***#0ew00* *;########",
"######>p>*>;>wMnw0is>>pf>a-jjfp>>jspjf-p>;;=*##ee000*  ;>#######",
"######ip:=;>$nMMe0ii*>is;a>4NgpdjspjN2>>;:;=*##ee-00** *;#######",
"#####:p:*;>$wnMMe0-22>ii;dp::hf>=hf;-:dd;:;=*#>>-0000* **>######",
"#####ip**>%%w623e0%cc3>>;p;-is*;:s*;>-pp-:;=#=>>-=000 *+*;######",
"####>p:*>$%%w24c43%cb82:di=;pp;:pp;:p=::>;=. ii:=0=00  **=>#####",
"###>ip:$$%%%w3cblc%cllcii:=ss>isssiss>:-*=. =ii--*000.  *=>#####",
"##>ip:*$$%%%w3cllc3cl7c;;-sur:     irt;===fffa:--**0.   **=>####",
"##;pp>$$6122%3cl7c5cl7c===*yut     uBr%==*>>>>>>>-=.     **;####",
"###>pp>$1cc545cl6lcll6c23-***       ***=;;;;;-->>>>;=.  **;#####",
"###;>p>$2cb8cc5l673l66c3c3***       ****===;;-*sspp>>= **-;#####",
"####-pp>258ll7676776635c8c2**&     %****=***:>ppspp>;- ***######",
"#####-p>m2cl6l7767666llv7c2**t     &***=****;:>ppp>;----**######",
"######-2224cl66666666666c1-==:=00#=;==*=***--;:>pp>;-:i:*#######",
"#######2cccll776666666341-;==i=ww0=i==***===--;>>>>;:;:i*#######",
"#######258b766666666662<---=a==ww0==i=*=====--;:>;;:i;;:*##*####",
"########25557776666662<:::-py;;>>>;=ti*=====**=;;>-=:>>;-****###",
"#########222557666622<**-=>ipa>>>>>iii=======*#===;--;:>:-*;*###",
"###########23443222<<**#***=;;=====;;=*===**=*##====;;--=i;;p###",
"############111111<p;;***            *******=#####==-;--==ip:###",
"############i;$%&i*>>;;******    ***********#**#####==-===pi=###",
"#############>;=$;-=*---#*****    *********#***.####+#=>ii>;;###",
"##############==:-*=******          ****** *#######+++=issp:;-##",
"#############pp>;;=*=+. ******.  *****      ###+++OOO;#pssp:;-##",
"############pp>;=**++. *              **.   ***Oo***###sssi:--##",
"###########dap;***-***. * ****.   *** *.  +******.***###ssi:--##",
"##########adp>-*-;-*+          *        +Oo*---******###ps:--###",
"#########shfp>*-;;* ** **.   **#**.  ++**X *---=**-**##lkkg--###",
"########sfhap:-*;>**--=******-*##***+o**=***----**--**#gxgg--###",
"########fhhpi:-*-;*=;-*******-$###**X **-=*=-:;;**-:**#kl:p--###",
"#######shhfp>:=*;**=***#****$$$#####****-:=*;>>;**->**#ga::--###",
"#######dhhs>:====**==-*####==$$$######**-:-*-:;;**-;**#ga::--###",
"######phhhsi;;=-**===*######===$$######**--**--*******##g----###",
"#####pshhha-::i**---=*#########==#######*****;;*-=****###i--####",
"#####dhfffp:ip:**;:;*####################**;*>>:;-****##########",
"#####ddaaai:pi:**;;;*####################**>;>pp;-=****#########",
"#####pp:pp:p:*******######################*--isp>;-*-**#########",
"#####:::pp::=**==-#########################**;spi;;*-**#########",
"######::>>****=;;;###########################*>pi;;*-**#########",
"#######sps:sp=*=;############################===:::*-*##########",
"########p>=>**--##############################;;:p>***##########",
"##########=:>-:-###############################;:p>-**##########",
"###########dp;i=################################;ps-*###########",
"###########dp;p=################################:gdi*;##########",
"###########dp;p=*##############################;idi::-*#########",
"#########dgdgdg;;*#############################;is*:***#########",
"#########dd=d=9s;*#############################;is;i***#########",
"#########,9*l*z>;*#############################mis:p=*##########",
"################################################is>s=*##########",
"###############################################;ggsss>*#########",
"###############################################sg9=;=;;*########",
"###############################################s>z*l*9,*########"
};
