/* XPM */
static char *_79400052aeb4989eab866eeeb001a0f[] = {
/* columns rows colors chars-per-pixel */
"64 65 59 1 ",
"  c black",
". c #151515",
"X c gray11",
"o c gray22",
"O c #400000",
"+ c #4C0000",
"@ c #580000",
"# c #640000",
"$ c #700000",
"% c #7C0000",
"& c #543C1C",
"* c #404000",
"= c #585400",
"- c #706C00",
"; c #5C4020",
": c #744C28",
"> c #400040",
", c #580058",
"< c #6C0070",
"1 c #770277",
"2 c gray33",
"3 c gray44",
"4 c #7C7C7C",
"5 c #880000",
"6 c #980000",
"7 c #A40000",
"8 c #B00000",
"9 c #BC0000",
"0 c #C80000",
"q c #D40000",
"w c #E00000",
"e c #EC0000",
"r c #FC0000",
"t c #FC2020",
"y c #9C4C00",
"u c #B45400",
"i c #CC6000",
"p c #E46C00",
"a c #848400",
"s c #9C9C00",
"d c #B4AC00",
"f c #FC8820",
"g c #CCC400",
"h c #E4D800",
"j c #FCF420",
"k c #FCA85C",
"l c #840084",
"z c #8D028D",
"x c #980088",
"c c #9C009C",
"v c #B400B4",
"b c #C800CC",
"n c #E000E4",
"m c #FC00FC",
"M c #FC20FC",
"N c gray55",
"B c #989898",
"V c gray66",
"C c #D0D0D0",
/* pixels */
"                                                                ",
"                                                                ",
"                                                                ",
"                                                                ",
"                                                                ",
"                                                                ",
"                                                                ",
"                                                                ",
"                                                                ",
"                                                                ",
"                                                                ",
"                                                                ",
"                                                                ",
"                                                                ",
"                                                                ",
"                                                                ",
"                                                                ",
"                                                                ",
"                                                                ",
"                                                                ",
"                                                                ",
"                                                                ",
"                                                                ",
"                                                                ",
"                                                                ",
"                                                                ",
"                                                                ",
"                                                                ",
"                                                                ",
"                                                                ",
"                                                                ",
"                                                                ",
"                                                                ",
"                                                                ",
"                                                                ",
"                                        =  s-                   ",
"                         =s            -adaa-=d a               ",
"                       --adadd          ba-ga=sa= a=  e-e       ",
"                      sgggxxda ba =* s   ==ad-=-= axaexx+       ",
"  e                   -gg=ax=a a= hadhaa*-ssggas   ==sq955+     ",
"  e            g-    -x=xxaxs-   =jjsaasjaj-gg,a = g*5a  6      ",
"     ws=-      aga -s-dxxl=-=sasdggj==-,jsd<dx=-d-d-5w-w        ",
"   htx8hha    aggg  a=aaxdga=aa=sggss-da<djjb<d,=x=--6-x5       ",
"   rx8ahhs agdaggjd-xxhrrajjagjx,haasahhjdjjdl<xdxd-wwg88       ",
"   ee=ahgsaxggaaagga-*dr%$jdad*xxag=d=-rr-dax-lh,x=-eaa   9e    ",
"       =djx*xxx=-=dxxxa$b$d-=xlxgdxhga=r8$lhjbdh>pq8d-@g 5  9   ",
"    8 es6xxadg*gxxsxaaxxxbclllhlq86xj,d$$$>jl<slpqqj85q  85     ",
"        @xxssxxxOOOxagxxlccN3llbr8d$hh,xh>jhljbjqhg8@$7qqxe5w8  ",
"         ssxs-xOOOOaxx#cll,32lcb88%u99sjsahd-=-s8jj@@$%78qag85  ",
"      eesashsx-@@@@OO#5cvll-,cvb$%pjjqhjcdsjds9j9655k8k8kyqq    ",
"      8e8=-s=-O$oo$O#55cll85bcqq+qbq9h99h95$s6hqvvqtf$y$:&77%   ",
"      5ha=e8= @$oo8966qeeeeeq888q,9955555+Oh559vvl9tOOOOOO$%%+  ",
"         6=e= $$00068eeeeeqq9885q,+5#999+#$9995vcwwtOOOOOO###+  ",
"              600808q8w8888665$$$8qO#555+#$555lvwww8%OOOOO++++6 ",
"          a000005%08ww88855%%##@@5qOOOvvOOO++><vww88OOOOOOO+++$ ",
"         90ww05#@#%89qwq998665%888>4BC OOOOOO><vww88OOOOO OOOO+ ",
"         i6865@@$#%8899qqqq885%6$>>  NVOOOOOO><cww88OOOOO OOOOO ",
"         yy$$$$$#O#8%89999886%$##>>.>  OOOOO>><cw#<@OcOOO    OO ",
"         y;#+++OOOO#,%%5555%$@v@+>l>>OOOOOO<>>Ml$8M@OOOMO c  OO ",
"          &&OOOOO,>,#,@+l+>+>++>++>>>>OOOOO,M>lMc$@cOOcOO  <OOO ",
"                    ,,@,,,l,>O>>,,O,,v,OO,lcc<lMMz<lOc,O <OOOOz ",
"                   vc,,vlllllvllllllllllllcbvvbbz1,,,,,><X,>>>> ",
"                nbvvvvvbbbbbbbbbbbbbbbbbbbbbbbvzz,,>>>>>>>>>>>> ",
"                  mmnnnnnbbbbvvvzzzzzz11111111111111,11<<<,>>   ",
"                                                                "
};
