/* XPM */
static char *_3e41cb194ec485cb6db1a109db92984[] = {
/* columns rows colors chars-per-pixel */
"64 63 64 1 ",
"  c gray7",
". c gray11",
"X c #2C2C2C",
"o c gray22",
"O c #400000",
"+ c #4C0000",
"@ c #580000",
"# c #640000",
"$ c #700000",
"% c #7C0000",
"& c #543C1C",
"* c #404000",
"= c #585400",
"- c #706C00",
"; c #5C4020",
": c #744C28",
"> c #400040",
", c #580058",
"< c #6C0070",
"1 c #770277",
"2 c #484848",
"3 c gray33",
"4 c #646464",
"5 c gray44",
"6 c #7C7C7C",
"7 c #880000",
"8 c #980000",
"9 c #A40000",
"0 c #B00000",
"q c #BC0000",
"w c #C80000",
"e c #D40000",
"r c #E00000",
"t c #EC0000",
"y c #FC0000",
"u c #FC2020",
"i c #9C4C00",
"p c #B45400",
"a c #CC6000",
"s c #E46C00",
"d c #FC7800",
"f c #848400",
"g c #9C9C00",
"h c #B4AC00",
"j c #FC8820",
"k c #CCC400",
"l c #E4D800",
"z c #FC9840",
"x c #FCA85C",
"c c #7400B4",
"v c #840084",
"b c #8D028D",
"n c #9C009C",
"m c #B400B4",
"M c #8000CC",
"N c #9800E4",
"B c #C800CC",
"V c #E000E4",
"C c #FC00FC",
"Z c #FC20FC",
"A c gray55",
"S c #989898",
"D c gray66",
"F c #D0D0D0",
/* pixels */
"                                                                ",
"                                                                ",
"                                                                ",
"                                                                ",
"                                                                ",
"                                                                ",
"                                                                ",
"                                                                ",
"                                                                ",
"                                                                ",
"                                                                ",
"                                                                ",
"                                                                ",
"                                                                ",
"                                                                ",
"                                                                ",
"                                                                ",
"                                                                ",
"                                                                ",
"                                                                ",
"                                                                ",
"                                                                ",
"                                                                ",
"                                                                ",
"                                                                ",
"                                                                ",
"                                                                ",
"                                                                ",
"                                                                ",
"                                                                ",
"                                                                ",
"                                                                ",
"                                                                ",
"                                                                ",
"                                                                ",
"                                                                ",
"                                                                ",
"                                                                ",
"                                                                ",
"                                                                ",
"                                                                ",
"                                                                ",
"                                                                ",
"                                                                ",
"                           BBfgk                 sd07           ",
"                         BBnnvmvk08             see007e         ",
"                OOO     BmnFSBvB<08$   <bz<1< <<edsa@$dee       ",
"               OOOOO  #BBh,S5vkfv0%p-bknfBf->zqsdaidi$%90e      ",
"               @@@@=g-7BnZv,,Zhfv<si-fgkzh-=z-Bdsd77x0x0xiee    ",
"              O$oo=fgfgBhv07BneeveBxkxkxkf=*=-esmmeuj$i$:&99%   ",
"              @$oo0-hzetsjspii00e,qq=dddnii-ffhmmvquOOOOOO$%%+  ",
"              $$s=whzpzazzzeq007e,+7#xx****j-j7mnrruOOOOOO###+  ",
"              8sspwzp0a0jss887$$$0eO#ii7***777vmrrr0%OOOOO++++8 ",
"           djjdp7%wzrr00piii%##@@7eOOOmmO**++><0rrm0OOOO>OO+++$ ",
"         qwrrs7#@#%zqarpjsjp87%000>6SF4OO**OO><nrVr0O>OOO OOOO+ ",
"         a8a8p@@$#%z0qqeeea007%8$>>34ADOO**OO><0nq0nO>OOO OOOOO ",
"         ii$$i$$#O#z%0qqqqp08%$,#>>X>22OO*OO>><nrZr<OOO>O    OO ",
"       8yi;#+i+OOOOz,%%777i%$@@@+>>>>OOOO*O>>><n0rr@OOOO>    OO ",
"    ------&&OiOOO,>-#,@+++>++>+>++>>>>OOO*O,>>vZ0m<n>O>O>   OOO ",
"  0yw7szkkkgfigkfhlhf*@>>>>>>O>>>>O>>>>>>,<<<<vZZn<vOO>O>  OOOb ",
"     seeeshhhh-----MMNvvvv<<<<,,,,,,,,,cccnncnBBnv,,,,,><.,>>>> ",
"    800088#   f4VBmmmmmBBNccNBNccNBBBNccccNBBcmnn,,>>>>>>>>>>>> ",
"                  CCVVVVVBBBBmmmnnnnnnvvvvvvvvvvvvvv,vv<<<,>>   "
};
