/* XPM */
static char *_100689b0ac94cc68a0929e2671c13e1[] = {
/* columns rows colors chars-per-pixel */
"64 65 65 1 ",
"  c gray7",
". c gray1",
"X c #0B0B0B",
"o c #101010",
"O c black",
"+ c #2C2C2C",
"@ c gray22",
"# c #400000",
"$ c #4C0000",
"% c #580000",
"& c #640000",
"* c #700000",
"= c #7C0000",
"- c #543C1C",
"; c #404000",
": c #585400",
"> c #706C00",
", c #6C4824",
"< c #744C28",
"1 c #400040",
"2 c #580058",
"3 c #6C0070",
"4 c #770277",
"5 c #484848",
"6 c #646464",
"7 c gray44",
"8 c #7C7C7C",
"9 c #880000",
"0 c #980000",
"q c #A40000",
"w c #B00000",
"e c #BC0000",
"r c #C80000",
"t c #D40000",
"y c #E00000",
"u c #EC0000",
"i c #FC0000",
"p c #FC2020",
"a c #9C4C00",
"s c #B45400",
"d c #E46C00",
"f c #848400",
"g c #9C9C00",
"h c #B4AC00",
"j c #FC8820",
"k c #CCC400",
"l c #E4D800",
"z c #FCF400",
"x c #FCF420",
"c c #840084",
"v c #8D028D",
"b c #980088",
"n c #9C009C",
"m c #B400B4",
"M c #C800CC",
"N c #E000E4",
"B c #FC00FC",
"V c #FC20FC",
"C c #FC40FC",
"Z c gray55",
"A c #989898",
"S c gray66",
"D c #B4B4B4",
"F c #D0D0D0",
"G c #ECECEC",
/* pixels */
"OOOOOOOOOOOOOOOOOOOOOOOOOOOOOOOOOOOOOOOOOOOOOOOOOOOOOOOOOOOOOOOO",
"OOOOOOOOOOOOOOOOOOOOOOOOOOOOOOOOOOOOOOOOOOOOOOOOOOOOOOOOOOOOOOOO",
"OOOOOOOOOOOOOOOOOOOOOOOOOOOOOOOOOOOOOOOOOOOOOOOOOOOOOOOOOOOOOOOO",
"OOOOOOOOOOOOOOOOOOOOOOOOOOOOOOOOOOOOOOOOOOOOOOOOOOOOOOOOOOOOOOOO",
"OOOOOOOOOOOOOOOOOOOOOOOOOOOOOOOOOOOOOOOOOOOOOOOOOOOOOOOOOOOOOOOO",
"OOOOOOOOOOOOOOOOOOOOOOOOOOOOOOOOOOOOOOOOOOOOOOOOOOOOOOOOOOOOOOOO",
"OOOOOOOOOOOOOOOOOOOOOOOOOOOOOOOOOOOOOOOOOOOOgkk>OOOOOOOOOOOOOOOO",
"OOOOOOOOOOOOOOOOOOOOOOOOOOOOOOOOOOOOOOOOOOOOOkhhOOOgOOOuuuOOOOOO",
"OOOOOOOOOOOOOOOOOOOOOOOOOOOOOOOOOOOOOOOOOOOOOfffOgg>OOuiu*uOOOOO",
"OOOOOOOOOOOOOOOOOOOOOOOOOOOOOOOOOOOOOOOOOOOkz>gOOOggOOfte99OOOOO",
"OOOOOOOOuyg:>>OOOOOOOOOOOOOOOOOOOOOOOOOOOO>zzf>>Ouw>OOf;9;$%OOOO",
"OOOOOOOlpuwll%OOhOOOOOOOOOOOOOOOOOOOOOOOO>kkkg:f:uw:gy:>:0*%$OOO",
"OOOOOOOiiwfll>hfOOffO%OOOgxxgOOOOOOOOOOOOOgkhgf>:w9>:y;9:*%%OOOO",
"OOOOOOOuu:flkhg>:fzzf>OzO>xkkOOOOOOO>:>OOO:hf>>:fk;;>:9y:%%OOOOO",
"OOOOOOOOOOO>hg>;f>hf>:Ok:h:ikOOOOOkfkghOOOOy>zz;kf;>y:u00OO9euOO",
"OOOOOOOOwOug::;>hf::>%>bbf:>gfOOOOO:hkk:OOOOOkz;::;f::yy:O99u%eO",
"OOOOOOOOOOOO%:0hxkffgg>:g:h:h=:hOOkkgzzfOOOfk;>>:g0;;0:gkOww9%%O",
"OOOOOOOOOOOOO0gkgkfggfzh>z:>:ugkO>fgzzkkOOgh>iiw>::k;fkOOOO%%%OO",
"OOOOOOuugf>lg:wg>fkgk:zz>fuw=fhfOOffkkirkxz>>yw=zy:uw0&uwOOOOOOO",
"OOOOOOwuw:>g:w0:>ii0&fz>gzww=hh>>k:>::**>:xhiw%%>ffww9&&gkOuOywO",
"OOOOOO9lf:uw>:hgii09=$h%fzzh>ff>>:*:gf0r::fhi9fy;hy99&&hgkOfkw9O",
"OOOOOOOOO0:u>:h=eqq9*$;;g>h:ey>hue>fzkr>g>>g9%:g>fh9&&OOffwyw%%O",
"OOOOOOOOOOOOOhg=y09*$$;uuw=:yy>e00$fkf>iit>fg::>fuh:9::O;w99*OOO",
"OOOOOOOO9OO>fh:h:$$$$=fuuw==::fq*$$%:>iitw0=fz>:h0%%k:uOOOO9&&OO",
"OOOOOOOOOOOfhy>::gh:OOOk:=k=ezz:$$fhzwitw0=%:gfkg%%>%>>>%OOO&$OO",
"OOOOOOOOOOw:fh>yyOOOOttw0*%:>zzie:ghzzie0=*%%%%zz>0%%fg:%OOOOOOO",
"OOOOOOOOOwuOOuwyyOwOttig=*ak>ggu0e%hezek=*%>%gwgzh%;;g>%%OOOOOOO",
"OOOOOOOOOOOOOOww8GDOtkgwks$O%>>z0e:fe%%%00>k:f%0k>;%:OOvvOOOOOOO",
"OOOOOOOOOwugOOOOGDDOtiiwdg$OOk>%%%%0e0gzz%hg%0>0;;MrD0 r3NOOOOOO",
"OOOOOOOOOOg>OOOOG8OOOww9k*$OOeeezz:0>g&zzb:OO0k;f0dtG8wrr2vOOOOO",
"OOOOOOOOOOOOOOOOOOOOOekw9&$NOOuezz&l&:zb110%Oe>e;0ttGkq0kN2vOOOO",
"OOOOOOOOOOOOukOOOOOO0i99*$N3O:geg&1&c&1bb11OO0:e:ktt8G%*00vv4OOO",
"OOOOOOOOOOOO>:OOOOOOei09*$$OOOOf:&3l13bbbzc1OO>OOOt=%#9=9w0#vOOO",
"OOOOOOOOOOOOOOOOOOOOti09*%$OOO>OO%&zk13gbbg41OgOOOw*=%%*=0w*#mOO",
"OOOOOOOOOOOOOOOOOOOOii09%&$&OOOOO1:kk1132b144OzOOOO9%%%%=900##OO",
"OOOOOOOOOOOOOOOOOOOOit09%&$$lOOOOO11c211n3e241:OOOlbw%&===90&#OO",
"OOOOOOOOOOOOOOOO*:**rr09%&$$00OOOO123ze213z023## #:N%%%****0*3OO",
"OOOOOOOOOOOOOOO*****wr00%M$$**0O00:1wc2*3n29*c=*9#*0999#&#*9*3OO",
"OOOOOOOOOOOOOOO**$$*0wM=%$$&$**0****w939*nn9***%#990ee9Nc%***3OO",
"OOOOOOOOOOOOOO***$$**0=*%$M$$$$**&2&3M99**$29t#B99NwMe0Nn2%%&3OO",
"OOOOOOOOOOOOOO*****$****M$#M##M*9w3eneen9$$Mr32m9wnw0e0Nn2%%$$OO",
"OOOOOOOOOOOOOO*9*+$$**0$$MMMM#*9M9n9393991$29n9C9Nwppppnn3X$$$OO",
"OOOOOOOOOOOOO*9**+$$@*0M+#McMnm**0wtnyyyq$&0iiqBwypj*j*ja2O$$OOO",
"OOOOOOOOOOOOO99*+@$&@@*++ccmZ7mm9qMqqqqq=$=90r#Bwyps*a*<-0OM#1OO",
"OOOOOOOOOOOO*9*+@@@&@M@*t0cM75cmq*******&$&**&nN*0p#######OO##OO",
"OOOOOOOOOOOO9*+@@@@@&@@*+t0ccttbm*&&&&&&&$&&&&MNc*w=######O3##OO",
"OOOOOOOOOOOO0*+@@@@@=@@@*tt=tw*0tM%$$$$$m$$$$$NNc1ww######OO##1O",
"OOOOOOOOOOO9w+@@@@@@@=tuuuuut%%9MVM$$**$$2M2#NmNc&=w#####OOO##OO",
"OOOOOOOOOOO9w+@@@@@@uuuuuueqt*0wtAF60m09#N$00mmN3w*%#####OnOm#1O",
"OOOOOOOOOOO9w9@0rr@uttteMM99t9=wt6ZS023Mc2$0cmNm3*%######OOO3#OO",
"OOOOOOOOOOOOw90rrwweytytq99===mw*+55$$n$m$3#Nmnm3MO####$1OOO#3OO",
"OOOOOOOOOOOO99wrww00etyt0*===*%2#221#$m$mM$cNNnc###133311OOm#1OO",
"OOOOOOOOOOOOwrw99=00wwc0=$$$$$&##221##2#M$#Ncnc3#1#133311OO3#OOO",
"OOOOOOOOOOOtrw9&&M=0=ww=&##c##%c#221####3#N#mcN3##1m13111OO#3OMO",
"OOOOOOOOOOOte9&&=&$=M==%##%$##%%##21##2###22mcn###1131211O###O1O",
"OOOOOOOOOOOeer&=&&#=&2%###$$#%%#OO212######NcNn#1#111#21OO##OOOO",
"OOOOOOOOOOOe-<&0&OOO&%%##########O21##OOO$Mc2N3##1m1#221O##O1OOO",
"OOOOOOOOOOOOr-rrOOOOOO1OOO#OO#OO2O21#2#O$3nmNn1#11##221O##MOOOOO",
"OOOOOOOOOOOO0a<,OOOOO3bOOOOO#O2OO1113##O$n3nn3O321122$1###OOOOOO",
"OOOOOOOOOOOOOO,OO111111111OOOOOOc111O2O$MO#n31M1$1111111#b1OOOMO",
"OOOOOOOOOOOOOOOOOOOOOOc32221121112c2111n11cc3333222m11111m1OOOOO",
"OOOOOOOOOOOOOOOOOOOOOOOOOOc333333c3334333m33n3333m3333m3333111OO",
"OOOOOOOOOOOOOOOOOOOOOOOOOOOOOOOOOOMvv443333333333333333333331OmO",
"OOOOOOOOOOOOOOOOOOOOOOOOOOOOOOOOOOOOOOOOMMvv44433222211111OOOOOO",
"OOOOOOOOOOOOOOOOOOOOOOOOOOOOOOOOOOOOOOOOOOOOOOOOOOOOOOOOOOOOOOOO"
};
