/* XPM */
static char *bc48982359de411bf7d514512abefe42[] = {
/* columns rows colors chars-per-pixel */
"64 64 47 1 ",
"  c #010101",
". c #060606",
"X c #070707",
"o c gray5",
"O c #101010",
"+ c #111111",
"@ c black",
"# c #202020",
"$ c #2C2C2C",
"% c gray22",
"& c #400000",
"* c #4C0000",
"= c #580000",
"- c #640000",
"; c #700000",
": c #7C0000",
"> c #543C1C",
", c #045800",
"< c #047000",
"1 c #744C28",
"2 c #400040",
"3 c #480048",
"4 c #580058",
"5 c #6C0070",
"6 c #484848",
"7 c gray33",
"8 c #646464",
"9 c #7C7C7C",
"0 c #880000",
"q c #980000",
"w c #A40000",
"e c #B00000",
"r c #BC0000",
"t c #C80000",
"y c #D40000",
"u c #E00000",
"i c #EC0000",
"p c #FC0000",
"a c #FC2020",
"s c #9C4C00",
"d c #B45400",
"f c #E46C00",
"g c #840084",
"h c #980088",
"j c #9C009C",
"k c #A800FC",
"l c #989898",
/* pixels */
"@@@@@@@@@@@@@@ww:@@@@@@@@@@@@@@@@@@@@@@@@@@@@@@@@@:::::@@@@@@@@@",
"@@@@@@@@@@@@@wrre0@@@@@@@@@@@@@@@@@@@@@@@@@@@@@@@0q;==:@@@@@@@@@",
"@@@@@@@@@@@@@erree0@@@@@@@@@@@@@@@@@@@@@@@@@@@@@0eq;&&:@@@@@@@@@",
"@@@@@@@@@=;qqerree0@@@@@@@@@@@@@@@@@@@@@@@@@@@@@qeq;&&===:@@@@@@",
"@@@@@@@@=;qq::qe0e0@@@@@@@@@@@@@@@@@@@@@@@@@@@@0q:;=&&&*==:@@@@@",
"@@@@@@@@=;qq&=:q0ee0@@@@@@@@@@@@@@@@@@@@@@@@@-0qq=&&  &**=:@@@@@",
"@@@@@@@@@=qq-=-q&0ee0@@@@iut@rpputre@pii@@@@00q0=&&&XX**=:@@@@@@",
"@@@@@@@@@;q=q:-q&0eee0-@iauqeyeeqq0qiairr@-0::0=o&&&&&**=:@@@@@@",
"@@@@@@@@;q-&:-::=$0ee:&eipue;eppyrw0pir0-*:::;&O&&&o&&&&=@@@@@@@",
"@@@@@@@@:q**:&;:=#$0e&:eeipuqeqqq00ryr0---*&&& 2543 &&&&=:@@@@@@",
"@@@@@@@;q-*:-$-gg42*0:qttwtqq-qyeqqrq0q;;--*&  5532 &&  =:@@@@@@",
"@@@@@@@:q&:-$$#jg4220:qtteqir-0:::0yq:;::;-*& 25422  && &-:@@@@@",
"@@@@@@;q-&-$$$5jj422*:0e:qqtpw:eqquiq-;:-;-*& 55222   &  -:@@@@@",
"@@@@@:q&:-$$$$5jj522$:00-qqu00-;:0q::-:0-;-*  55=22   && &-:@@@@",
"@@@@:q;--#$$$5gjjw=2$$::-qyqet-wq0re-:e0=-*  ::=2222   & &&:@@@@",
"@@@:qq;-##$#$gjjrj==$$$;-r0iet:--0rq-e;q&*  *::=*222@   & &-@@@@",
"@@;qq;&##$#$#gjjjr;=$##-=r=iitq::yeqye=q&*  =;;*2*22     &&*:@@@",
"@@;qq&&;##$#$5ghrw0=qtt=*w:<kyqrreqyk,:: &qqq:;*&222     *&&*:@@",
"@@@-q;qq###$#$5hw0qttw-0wwww::q:;::;::::--*-::=*&&2      & &&*:@",
"@@@-=qq=##$#$#$rwttttw--0w;=:;;=&=;;-=:--=*-&:q*&&       &  &&-@",
"@@@@==;=#####$rttttww::*-0-*;q0-;q0-=**-=*&&-=::::-     &&&&&-@@",
"@@@@@@;;=##eeq:;twwww:::**-*-0&-;0&-*&***&&&::qqqq::&   &&&==-@@",
"@@@@@@@;;=qyye:;-w:::::::==-;0-;:0-;*&&*&&&-qqeeqqq:-&  &&&;@@@@",
"@@@@@@@;;;:yyeq:-w:q:-------e:;;:00e;&&&&--:qeeeqq:-&* &&&=:@@@@",
"@@@@@@@@;e:eeeq:;--------==696;&&&067$&--:::qqqqqq-&&* &&=:@@@@@",
"@@@@@@@@eqq0qqq:;-**-======9l%&&**&%9%&-;;:-;qqqq:-&&--&&=@@@@@@",
"@@@@@@@e00eq:::::=*****=-;:6987**=9l7$*::=*--;:::--&0-q-=@@@@@@@",
"@@@@@@e0euurr0::===***********************&&-----:=*;:;q;*@@@@@@",
"@@@@@e0euuueq;-=&&&***;-=*&&&&&&&&&&-&&*-*&&&& ***-==-;qq-*@@@@@",
"@@00@0euuueq;-=:&&&&&&&&==*&          *-&=&&&&  ***;0::;qq-@@@@@",
"@@q0e0uueqq;;=e;*0&&&&&&&&&&&&&   &&&&&&&&&&      *-0w0:qq-*@@@@",
"@@:qtiqqq:;;-=h---=*& &&&&&&&        &&&&&&       **-ww0;q-****@",
"@@eti==::;;-=hw0-==*&&     &&&&   &&&&&&&          **-w0;qq-***@",
"@@eyt=-=;-=@@w0-;;=*&&&&        &                   ***;qq:--**@",
"@@eye-:-;@@@@w-:0;*&&&**&     &&@&&         &&&      h*;tq0;-=@@",
"@@0ye0q;*@@@w0:00-*&&***&  &&=&@@@&&&  &   &&&&& &   httqq0;-=@@",
"@@@yy0r;*@@@w0ww0=&&***&&  &&=@@@@@&&   && &***& && htttqq;-==@@",
"@@@ey0y0@@@w0ewq;*&&***&& &&@@@@@@@@@&&@&&&&*==*&&&&htttq0;-=@@@",
"@@@eyep0@@@werwq-&&***&& &&@@@@@@@@@@&&&&&&&===*&*&&&ttq0;-=@@@@",
"@@@@tyype=::weq;=&&**&&&&&&@@@@@@@@@@&&**&&*==-*&=*&tqq0;;=@@@@@",
"@@@@qppqqe::00:=&==&&&&&&&@@@@@@@@@@@@&&=*&&---*&==tqq0;;=@@@@@@",
"@@@qpppq;ese:**&;;=&&&&&@@@@@@@@@@@@@@&&==*&:--*qq0--00=@@@@@@@@",
"@@@ppwpyqf;yyq-qq;&==&@@@@@@@@@@@@@@@@@&--=&:--sppyq--=@@@@@@@@@",
"@@@pwpwq;s;yyq-qq=&==&&@@@@@@@@@@@@@@@@&-:-&:::yfyyq---@@@@@@@@@",
"@@@rpwr;;;@@-----=&&=&&@@@@@@@@@@@@@@@@&-:-&&:-ps;q----@@@@@@@@@",
"@@@@rw;;;@@@::::-==&=&&@@@@@@@@@@@@@@@@@--&&&&&yw;;----@@@@@@@@@",
"@@@@@@@@@@@@@yqq:==&&&&@@@@@@@@@@@@@@@@@&-&;;&-=y------@@@@@@@@@",
"@@@@@@@@@@@@@yyq::==&&&@@@@@@@@@@@@@@@@&000--=&=&0----@@@@@@@@@@",
"@@@@@@@@@@@@@@yyq:===&&@@@@@@@@@@@@@@@@&0wq--=&=&&@@@@@@@@@@@@@@",
"@@@@@@@@@@@@@@@@yq-==*=&@@@@@@@@@@@@@@@*;eq;-&&*&@@@@@@@@@@@@@@@",
"@@@@@@@@@@@@@@@@@@0;=&--*@@@@@@@@@@@@@@@*::;-&&*@@@@@@@@@@@@@@@@",
"@@@@@@@@@@@@@@@@@@yq=&--*@@@@@@@@@@@@@@-:00;=&&@@@@@@@@@@@@@@@@@",
"@@@@@@@@@@@@@@@@@@@rq-0**@@@@@@@@@@@@@@-:0;=&&@@@@@@@@@@@@@@@@@@",
"@@@@@@@@@@@@@@@@@@@rq-q*&@@@@@@@@@@@@@@@-0-=&@@@@@@@@@@@@@@@@@@@",
"@@@@@@@@@@@@@@@@@@@rq-q*@@@@@@@@@@@@@@:;-e0&-@@@@@@@@@@@@@@@@@@@",
"@@@@@@@@@@@@@@@@@@@rq-q*@@@@@@@@@@@@@:00-0;;=@@@@@@@@@@@@@@@@@@@",
"@@@@@@@@@@@@@@@@@@@yrqrq-@@@@@@@@@@@@;0e0&;&&@@@@@@@@@@@@@@@@@@@",
"@@@@@@@@@@@@@@@@@@rqrqrqe-@@@@@@@@@@@@-;e0*;&@@@@@@@@@@@@@@@@@@@",
"@@@@@@@@@@@@@@@@@@>:rqrqe-@@@@@@@@@@@@@-e0*0*@@@@@@@@@@@@@@@@@@@",
"@@@@@@@@@@@@@@@@@@@d:::::@@@@@@@@@@@@@@-ee:0::&@@@@@@@@@@@@@@@@@",
"@@@@@@@@@@@@@@@@@@@@*d*d*@@@@@@@@@@@@@@ee1*-*--&@@@@@@@@@@@@@@@@",
"@@@@@@@@@@@@@@@@@@@@@@@@@@@@@@@@@@@@@@@e:d&s&1>&@@@@@@@@@@@@@@@@",
"@@@@@@@@@@@@@@@@@@@@@@@@@@@@@@@@@@@@@@@@@@@@@@@@@@@@@@@@@@@@@@@@",
"@@@@@@@@@@@@@@@@@@@@@@@@@@@@@@@@@@@@@@@@@@@@@@@@@@@@@@@@@@@@@@@@"
};
