/* XPM */
static char *a181a9c0e1a343c4fd8544e60235f25d[] = {
/* columns rows colors chars-per-pixel */
"64 65 68 1 ",
"  c black",
". c #131313",
"X c #151515",
"o c gray11",
"O c #202020",
"+ c #282828",
"@ c #2C2C2C",
"# c gray19",
"$ c #343434",
"% c gray22",
"& c #400000",
"* c #4C0000",
"= c #580000",
"- c #640000",
"; c #700000",
": c #7C0000",
"> c #543C1C",
", c #404000",
"< c #585400",
"1 c #706C00",
"2 c #5C4020",
"3 c #744C28",
"4 c #400040",
"5 c #480048",
"6 c #500050",
"7 c #580058",
"8 c #6C0070",
"9 c #770277",
"0 c #484848",
"q c gray44",
"w c #7C7C7C",
"e c #880000",
"r c #980000",
"t c #A40000",
"y c #B00000",
"u c #BC0000",
"i c #C80000",
"p c #D40000",
"a c #E00000",
"s c #EC0000",
"d c #FC0000",
"f c #FC2020",
"g c #9C4C00",
"h c #B45400",
"j c #CC6000",
"k c #E46C00",
"l c #848400",
"z c #9C9C00",
"x c #B4AC00",
"c c #FC8820",
"v c #CCC400",
"b c #E4D800",
"n c #FCF420",
"m c #840084",
"M c #8D028D",
"N c #980088",
"B c #9C009C",
"V c #B400B4",
"C c #C800CC",
"Z c #E000E4",
"A c #FC00FC",
"S c #FC20FC",
"D c gray55",
"F c #989898",
"G c gray66",
"H c #B4B4B4",
"J c #D0D0D0",
"K c #ECECEC",
/* pixels */
"                                                                ",
"                                                                ",
"                                                                ",
"                                                                ",
"                                                                ",
"                                                                ",
"                                                                ",
"                                                                ",
"                                                                ",
"                                                                ",
"                                                                ",
"                                                                ",
"                                                                ",
"                                            1l        ss        ",
"                                            lbv     sdsyy       ",
"                                             vbl  vz1pyee=      ",
"                     1xx                     zz1 zzl1,e,;=      ",
"   s           z      xb1  xzz               l11  l1<1<;=r*     ",
"   s          nnxz     1  bbxz1                     ,e<  r      ",
"     saz<1   nnxl        bbxz<               l      ea<a        ",
"    bfsybbz  nvv<        zxz1               1z    lxsur         ",
"    ddylbbl  vnv  <x  vx  11<  xl           bx,   1<uu<         ",
"    ss<lbvx   vN1 zl vnz  <<l   z lnnl     ,xx     xlzv         ",
"        <xxl  diylbn vzl  l1lz<   vnvln vl zl1      vl<         ",
"  1    szrlx  itr<bb  11 v1l    1,lnlx,   n1z<<      sy   eus   ",
"         =   x1l::zzz,ll xn1n<znbz1vtxv< bx1<<1<bz   tzv ees u  ",
"              vvx<d<x1xxx=<ldy1bbxz,l<1znbzz1<=<1lt<1xzv yye    ",
"        , n   vz:=<l=d<=xlx,y:=zvlt,xz<nzd<1<z==d<tt==ll    e   ",
"        l t   zddi=d,d=<l=lln=v=zp**<1<<=nbldd<<dlbx<=,y        ",
"        zzx  xydityyy=lbbddu:lzptpzpp1x7zbnxde1zznbdsy    s ay  ",
"      zzNzbb  rittdye=1bbuu::<ztt1vee1<<<bnnl<du<b<vx<=v  lvye  ",
"   sszlzbzbbl x=i:<===<zz<:::**<1pnl1n14<dnnxduuel<<1<==tyay    ",
"   ysy<1zzyl< xxzdlt<t<11,,1<<t1vvlbbxz171zdnleeexlvvd=ttee;    ",
"   ebl<syl1<1blaa=tttt,,t*lnntz*pvvxx1ppt1dzl<ddnddvxt=ttle--   ",
"      r<s<<lxxlx=dl=,z==z<**,=d=lzxx7<ppt<n1ln=,dl==ttl x  -*   ",
"  l       lxxaz1nn==lnnautzt=ppyr<z<x7pt7<<<x1<d=kpre           ",
"          y<xzl1n dt,nnuu:xtnplyrz<<p<vd;4<vxx<t<ppyxe          ",
"         ys  11<<  t=tNNxx;Npldil;=<ppxll741d14Npppxtreu        ",
"              <<   dtNvNNNNNddai:;nnvz11plm174m4ppyy=;etxp      ",
"                   dN;;;;Nvdxiiy:hnnvl1lnnl74n7my;:==xHretty    ",
"             x awKHN;;;;;Nddyu;:kg p  47nnln744m &&ZrrKw;:tt:   ",
"             syaKHH;;*;;iddve*==      v4llm8B8u7u&;raaKv--;::*  ",
"              yyKwN;*@$CdCieC**  v    478mumCB7r&uuruuwKm=---*  ",
"                 ee-@@rddiye**-   rrrrN4ymV;VCmemZyffffBB8****r ",
"                e;*@@@rdiCeC*C* ttrr;;;;yeee;CBeyafc;c;cg7&***; ",
"               e;@@###rCyeCVZ&Crtteyyy8uBuuue;*7aafh;g;3>r&&&&* ",
"              e;@#####eeVrVVVCppe:tuuuuuuuutt**8aaf&&&&&&&&&&&  ",
"              r;@##$$$*eeC&VmmBVy-rpppppBaaat*u8aay:&&&&&&  &&  ",
"             ey@#$$$$$*;;;mpVDqVpyetttCttttt:ry8;ayy&&&&&&   && ",
"             ey@$$$%%%%;**r:pq0mpy;;;;---Vm-*rr84-:y&&&&&    && ",
"             eye%%%%%%%-%%%**:pp*pCSCrrr;m7rrr884y;=&&&&&    && ",
"             --ye%yurrpssssspyyyp7*e:V::**:V:rm84;=&&&&&&    && ",
"              =-iiirysssssppuyyep7*e&7&*V*&**rm84C&&&&&&  ooo&& ",
"              riiyiypyayyyyrre;;;yp&-;;;*-;;;8m84&44&&&4 oooo&& ",
"           iiiiie:iyaayyyee::--ZByp&&&VV&&A**mm&4&444&44 oOOO&& ",
"         uiaaie-=-:yupapuuyZre:ZyyZwFJ &&&&&&mm&4&444444ooOO*&  ",
"         jryre==;-:yyuupZppyyZ:r;44  DG&&&&&7C8&&B44444&oOO+=&  ",
"         gg;;;;;-&-y:yZuuuyyr:;-ZBBXB  &mC&VmB8A444B484o8O+ -   ",
"         g2-***&&&&-7::eZeV:;Z=ZB4:V4&&&Vm&8BB&77C4744&oOO+-&   ",
"          >>&&&&&747-7=&VV*V=V*VmV*44V&Z&&VmCm74C7784V&8O+-&    ",
"                    77=VBm88mBm87m&V844&C7mBB87777B78484444     ",
"                     77Vm8878m7877V44B7&77BCBmCmA888B77B7777774 ",
"                    VVVVB88777665544444444456778888888888888744 ",
"                       AZCCCCVVVMMMMMM99999999999999999888744   ",
"                                                                "
};
