/* XPM */
static char *_52bd69a2673418a94f03aa56576c94e[] = {
/* columns rows colors chars-per-pixel */
"64 65 62 1 ",
"  c gray7",
". c #020202",
"X c #090909",
"o c #101010",
"O c #111111",
"+ c black",
"@ c #202020",
"# c #2C2C2C",
"$ c gray22",
"% c #400000",
"& c #4C0000",
"* c #580000",
"= c #640000",
"- c #700000",
"; c #7C0000",
": c #543C1C",
"> c #404000",
", c #585400",
"< c #706C00",
"1 c #744C28",
"2 c #400040",
"3 c #580058",
"4 c #6C0070",
"5 c #770277",
"6 c #484848",
"7 c #646464",
"8 c #7C7C7C",
"9 c #880000",
"0 c #980000",
"q c #A40000",
"w c #B00000",
"e c #BC0000",
"r c #C80000",
"t c #D40000",
"y c #E00000",
"u c #EC0000",
"i c #FC0000",
"p c #FC2020",
"a c #9C4C00",
"s c #B45400",
"d c #E46C00",
"f c #FC5C5C",
"g c #848400",
"h c #9C9C00",
"j c #B4AC00",
"k c #CCC400",
"l c #E4D800",
"z c #FCF420",
"x c #840084",
"c c #8D028D",
"v c #980088",
"b c #9C009C",
"n c #B400B4",
"m c #C800CC",
"M c #E000E4",
"N c #FC00FC",
"B c #FC20FC",
"V c #FC40FC",
"C c gray66",
"Z c #B4B4B4",
"A c #D0D0D0",
"S c #ECECEC",
/* pixels */
"++++++++++++++++++llh+++++j<>l>++++gl<<,l<.g+++hh+++++++++++++++",
"++++++++++++++++++lh<,+++gg,<hjj+++jkkjkghl>l+,hh<++++++++++++++",
"+++++++++++++++++uyh<<,,9yyy>llliiggjjggg,,gjjjhjg0wehue++++++++",
"++++++++++++++++lpuwllg9y-yyqjllii9gtg<,<hjg=jg<,<0uiluue+++++++",
"+++++++++++++++uiiwgllg99gyyq-jjii9,g<ji,hh,tt<>g,0wte99u0++++++",
"++++++++++++l++uuu,glk.l,>qqq-hh;;;,l,<,>giw,tjl><;0>9--*+++++++",
"+++++++++++++g+><,>*,>,,gjg---hlh,<,j<ghlhuww<jj<jh0<,=<eue+++++",
"++++++++++++u+0lwhhkhuu>jjjllj<,hrglglllhgww;<<iuhl<9=<9u=++++++",
"++++++++++++l++><hklhuw>jjg,h<<,<h<hjlllh,<;=g<iw<<9,=www9++++++",
"++++++++++++++uuhhllh>w,jgl,gg,ghl<>,lll<,,h,,h<jg>,,>j<==++++++",
"++++++++++++0+uuw,<hgg,glu<hghljjhiy>rwggirggllgjg,>j><<&&++++++",
"+++++++++++++*wlg,uw,>0>g<g<lgjlllyy-ww;,gr,<llg<wu>>,hk<X+yw+++",
"+++++++++++++++,<0,u,hg>*,liirflllg--<;;,l9l>gg,jw9><jhk,gkw9+++",
"+++++++++++++++,,*>gllh*.>firw9lllj<,<k<hlj<>;,>;-->><ggwyw+++++",
"+++++++++++++++>g.>gllg;lh;rw9=hjjg<iwjhggg>gw>j>w;*,>>w99-=++++",
"++++++++++++++++0,000,>;h<=-9wil<,<,ww,<hli-<r>,,tw;>*++g9-=&+++",
"++++++++++++++++++;gr;;;;,,k==>ihiilii;,<iw09u->jww;gl++++++++++",
"++++++++++++++++++++gg,##-=e,,>,i,ilyw;=,=09el09>t;=<<t+++++++++",
"+++++++++++++++++++jjgg,=kqjjgw>>>hi;;;ee;=9uu0,tkt>++++++++++++",
"++++++++++++++++++<jkg,>=g9yy0-6>,i>,<<;gytj;00=g>>+++++++++++++",
"++++++++++++++++++,jj<,%zlj-0-j&+,,,>&+yew*t;0l%h<++++++++++++++",
"+++++++++++++++++++++5%30g&0y-&,,l2<+t;ewy%,;=%%0+++++++++++++++",
"++++++++++++++++B+++g-z9l;8SZ%42l32g,4%%%%%%j%6$=w++++++++++++++",
"++++++++++++++B+nm+Mv;;9ggSZZ,lx3nnknl3t4gl42v8CS+53++++++++++++",
"++++++++++++++++c5;x;B;--7S8&%lMllnxgx,%g4g4lZSS8wMw0m++++;;;+++",
"+++++++++++--;wwc55tiiiw*8A$,x%gllnlxgll,xm4m232-33x3b3M+9w-*;++",
"++++++++++-;;9Mw55qiyw0-*68A-Mb432434Mlk4xmg3x22&333B3M3Mw9-%;;+",
"++++++++++;;00;M0wiiw;;---Mb=g4xl3342g3&4lm43m23%%33bB3MbM**%*;+",
"++++++++++;000M0ttii-----=vv=*=323nb4&9&4*m0rr0+bbbb4bM3bMM;*;;+",
"++++++++++;;;00wiiww9---&===&&=e=94b33e==xdttrrwr44M4xMM3bMn;;++",
"+++++++++;;;*00wiie-w9=&M==&&&eb49==bnne=auuwwwrrrrrrrwMbbxn;*;+",
"++++++++;000*;0www&99&&M4&m&&=3=4m99--&39ttutwwqq00qwwrww0bbn;;+",
"++++++++;0000;=99=&&&&m2b&b;0w4ibiib9-&mr4trw*;;*---;;;0ww09b;++",
"+++++++++;0;;;====&&&242m09qeebe4e4e92=39b4rw;*%9;;0www;;w0-0n++",
"+++++++++00;@;;m=&&&&2224-bqeeeeMynqn3=bwb4r0-;**--;;0www0;-00++",
"+++++++++;0;@#emxx3442223*;9qwwMrrMw-4=wrii*b3%x4***===;;;;&%%++",
"+++++++++00#$$9bxx$&4322&----9999qqqqb=;qbqqb3%%+%%%&&&&&&&*%4++",
"+++++++++0e#$#$49x$$n432=&-99wwtbiiyq;=0iiii99;-**+2%%%%%%%+%4++",
"+++++++++0e#b#$$mb$$n432==&qrrrqwrrq;=;90rrwiq-***&M%%%++++%%4++",
"+++++++++9e#$$;m$mm$nttt9&n&&;0;;;;;=&=;;=;;9nNNMx49xM+++++%&4++",
"+++++++++eeM$$$;;xmmtw0009wABm*=====n&&===;;nVMM;eee%=%+n++%&&++",
"+++++++++e9#$$mmb$mt9**-x99CC*;wBnxe*0ttw;==VMx;0eee3x*+%%+&&&++",
"+++++++++e=$$$$bmbbt****-0-67BeBn4te;0n0tt03Nx0bwme0322%%%+&&+++",
"++++++++=e#$$$$$bmtmqq0w;9-234nnx0==0ttn;0;xN9rbw0e0322%x++m&+++",
"++++++++9e##$$b$9meeeq9;n--224nx00n%0030t3=bM9rnw0m0%22%xn++&+++",
"++++++++ee9#$$$0tttem0n--**223nx=n=n00b00b&mM9rnw0e0%22%+++4&+++",
"++++++++eee9#$eeytyte---3*3%24xxm;;===m==M&nMx93;0e0%2%%++++&+++",
"+++++++++ee0#e0eetyt0-3&--*3%%%xm&&&&00&&3mnMx&3=mm0%2%2+4++&+++",
"+++++++++090;e0ewwx0;&&--==%%%%24;4&&n0&%M&nnx&&=-yy9222++b&n+++",
"++++++++++09;y0r;ww;=%%x%%*x%%%%2&&&034mx3&bnx2&9ye9--22+++&4+++",
"++++++++++00m-0;m;;*%%*&%%**%22%2&&&&&b&n&4bnx220we%-%22+4+&++++",
"+++++++++++00-0;=3*%%%&&%**2242323&x%&n&nm&bn4220we&-%22++&n++++",
"++++++++++++0e0=&x%%%%%%*%%2222%2%%%%%3%m&%xn422wqwwww22++&4++++",
"+++++++++++++00m=m%%%@%%%2%2422%23%%%%%%4%%xn422w1-0-002++&+++++",
"+++++++++++++0t=;=&%e%%%o2+2232%2%%%%%3%%%%3b32=;s-a-1:0+&&+++++",
"++++++++++++te=;=;&v99@++2+2222+2+5+3%%%%%%&b32w-*%%%%%%&&++++++",
"++++++++++++te=0=;;vv**o+2+2322+2++++++++&m&bm2-*%%%%%%&&+++++++",
"++++++++++++eerr1r;=vv24+4+22+234+2+++++&&b+b32m+2222&2&++++++++",
"++++++++++++e:1&a01=v4v+*4222+2+2+++4+++&+b+b32m+2222&2v2+++++++",
"+++++++++++++++v&&1&vvv+22224222222++++&m+vvn2m2&2222v22++2+++++",
"+++++++++++++++++++++++++++2++++2+++++++++xmnbxx3333222222++++++",
"++++++++++++++++++++++++++++++++++++++++x+222x2222222222++++++++",
"++++++++++++++++++++++++++++++++++++++++++++++++++++++++++++++++",
"++++++++++++++++++++++++++++++++++++++++++++++++++++++++++++++++",
"++++++++++++++++++++++++++++++++++++++++++++++++++++++++++++++++"
};
