/* XPM */
static char *_a3be018f9b74583990abca1fbea6dfb[] = {
/* columns rows colors chars-per-pixel */
"64 64 86 1 ",
"  c black",
". c #010001",
"X c #020002",
"o c #030003",
"O c #040003",
"+ c #040004",
"@ c #050004",
"# c #050005",
"$ c #060005",
"% c #070006",
"& c #080007",
"* c #090008",
"= c #0A0009",
"- c #0B000A",
"; c #0C000B",
": c #0D000B",
"> c #0D000C",
", c #0E000C",
"< c #0E000D",
"1 c #0F000D",
"2 c #10000E",
"3 c #11000F",
"4 c #120010",
"5 c #120011",
"6 c #130011",
"7 c #140012",
"8 c #150013",
"9 c #160014",
"0 c #170014",
"q c #180015",
"w c #190016",
"e c #1A0017",
"r c #1B0018",
"t c #1E001B",
"y c #202020",
"u c #2C2C2C",
"i c gray19",
"p c #343434",
"a c gray22",
"s c #400000",
"d c #4C0000",
"f c #580000",
"g c #640000",
"h c #700000",
"j c #7C0000",
"k c #543C1C",
"l c #044000",
"z c #044C00",
"x c #045800",
"c c #046400",
"v c #047000",
"b c #047C00",
"n c #404000",
"m c #585400",
"M c #706C00",
"N c #744C28",
"B c #400040",
"V c #480048",
"C c #580058",
"Z c #680068",
"A c #6C0070",
"S c gray25",
"D c #484848",
"F c #4C4C4C",
"G c gray33",
"H c gray36",
"J c #646464",
"K c #7C7C7C",
"L c #880000",
"P c #980000",
"I c #A40000",
"U c #B00000",
"Y c #BC0000",
"T c #C80000",
"R c #D40000",
"E c #E00000",
"W c #EC0000",
"Q c #FC0000",
"! c #9C4C00",
"~ c #B45400",
"^ c #E46C00",
"/ c #049800",
"( c #848400",
") c #9C9C00",
"_ c #A800FC",
"` c #989898",
/* pixels */
"...............O..+O++++=======&++..............................",
".+O+OO+O+++O+++&===,=2,6688www86;+..............jjjj............",
"++&+&&&&======;,,,2666768wwwrw82=+.............LPhffj...........",
"&&&&&&&&&&&==&==;====,,;;,;,,,=&+O+...........UUPhssj...........",
"O...++.O+.OO..+..ooo+.O.+O..+.................UUPhssffjj........",
"............IIj..............................LPjhfsssffj........",
"...........IYYUL.............................PPhfsussdfj........",
"...........UYYUUL...........................PPLhssusdfj.........",
".......gjPPUYYUUUL..........................PPhffusssdf.........",
"......gjPPjjPULUUUL.....WWEU.UQQRYI.QWYL..LLPLhsusssusf.........",
"......gjPPsfjPLLUUUL...UWEQEPjPPPLLRRYLgYghPPhsuBACVusfj........",
".......gPPgfgPCCCUUULgjUEEWPTUgRRPYRRjULgdjhhsuuAAVBuufj........",
"......gjPfPjgjZABLUUUjPTTWLWTUjhPLQPgWhPggdsssuBACBBsusg........",
"......jPjsjgjCZCCBLUjjPTjIfWWTPjjWUPWTfPjggdsuuAABBBsuugj.......",
"......LPhdgjyCZZABLLsjLUgIjv_RPYWUPW_xjjghgdsuuAAfBBssusg.......",
".....hPhsgjyCCZZABfxxjLLgYPhhETjdETgfhYYghgdsujjfBBBBsussj......",
".....LPssjuuCnxcABu//cjjgPgfLUsghUsgjfPPfhgdudjjfdBBBususg......",
"....jPhsjyuuCxv/vcu/)MxhYLdgPPghPPghPdhhjgduuLLhdBdBBuussdj.....",
"...jLPhyyuuuCc/)!/u/!!/LLhdUUjLUUULUUjhfsduudLLffsBBBuuusdj.....",
"..jLPhsyyuuuCc/!!/c/!m/ggfUKDhuuuuuLDGgdddTTTIhffssBuuuussdj....",
"..gPPjyynzxxuc/!m/b/!m/dddsJKGuuuuuK`Duddsjjjjjjjfduuuuuussg....",
"...jPPjyz//bvb/!n!/!!n/xcfsssuuuuuuusssdgggggffjjjjgduuussg.....",
"...gjPjyx/)M//b!nmc!nn/c/csssuuuuuuussssdddggfsUUPPjjdussfg.....",
"....fPPjxbM!!mnmnmmnncb/M/xssauuuuuussssdssshjPPUPPjgfusss......",
".....fPj.x/!n!mmnmnnn!!(m/xssGuuuuuasssdssssghjPPPjgffffss......",
"......fxxxv/!nnnnnnnnnnn/zfddhdBBudgddsdsssffghjPPjgfhLhs.......",
".....O.x///!!mmnnnnnnncvzfgddLdCCBdLddsssdddffgjjjjghghLs.......",
"++++++&xbM)mnnnnnnnnnnxlfffdIddCCBddLdsdddddffghjgghLgghs..s....",
"&&&+&&&&xbbbmmmnnnnnnxlhhhfPJggjjjgdGLsdddddssdggjfdhjjgfssss...",
"OOO.OOO..xxxbbmnnnnxxlssfdjLPIjjjjjLLLdddddddsudddgffghjhfsgs...",
"...........xcvvcxxxllssusssdggdddddggdsdddssdsuuddddggffdLggP...",
"............zzzzzzlPggsssuuuuuuuuuuuusssssssduuuuuddfgffddLPh...",
"............LgyuaLsjjggssssssuuuusssssssssssussuuuuuddfdddPLd...",
".............jgdygfdsfffusssssuuuusssssssssusssuuuuuuudjLLjgg...",
"..............ddhfsdssssssuuuuuuuuuussssssusuuuuuuuuuudLUUPhgf..",
".............PPjggdsduuussssssuuusssssuuuuuuuuuuuuuuug.PUUPhgf..",
"............PPjgdssuuuusuuuuuuuuuuuuuussuuuusssuusss...UUULhff..",
"...........YIPgsssfsssuusussssuuuusssusuuuussssssusss...UULhff..",
"..........IYPjfsfgfsuuuuuuuuuuusuuuuuuuuuuusfffssssss...PUhff...",
".........UETPjsfggsussussuuuuss.ssuuuuussuusfffdssfss..!QQRff...",
"........UTEIPhfsgjssffdssssssfs..sssuussdsssffffssffss.R^RRff...",
"........TEEPLhfsfgsdgfsssssssfy...ssuussfdsdfhggssfhss.Q!hPff...",
".......UEETPjhdsgssdsss.ssssyyy.....ssssfhdsgjjgssfjss.RIhhff...",
".......YEEUjhddddssddfs....ddyyy......ssfhfsfhggssfgss.RIhhff...",
"......PEEEULggdfssddds......dddyy......ssffssffsssssss..Rffff...",
".....PUEEEIfhhLssfffds.........dd.......sssssggsfdssss...Lff....",
".....YETTTPhLPhssghgs....................ssgsjjhgfssss..........",
".....YYIIILhPLhssgggs....................ssjgjPPgfdssss.........",
".....PPhPPhPhsssssss......................sffLUPjgfsfss.........",
"....OhhhPPhhdssddf.........................ssgUPLggsfss.........",
"====++hhjjssssdggg...........................sjPLggsfss.........",
"w72,==+UPUhUPdsdg............................dddhhhsfs..........",
"t82=++..Pjdjssff..............................gghPjsss..........",
"7,&+O.....dhjfhf...............................ghPjfss..........",
"=O.........YPgLd................................gPUfs...........",
"...........YPgPd................................hRYLsg..........",
"...........YPgPds..............................gLYLhhfs.........",
".........YRYRYRggs.............................gLUshsss.........",
".........YYdYdNUgsFFFFFFFFFFFFFFFFGGGHHJJJJJJ..gLUgLsss.........",
".......J.kNs!s~jgsuuuuuuuuuuiiiiiiaaaaaaaSDDDGG.LUhPdsJ.........",
"...........JJHHGFDSaapppuuuuuuuuuuuuuuuuuaaaaaSDLUjUdsGHJ.......",
".............JHHGFDSaaapppiiiiiiuuuuuuuuuuuuuuigRRUUUjsDHJJ.....",
"...............JHHGGGFSSSSaaaaaaappppuuuuuuuuuuURNdgdggsDGHJ....",
"......................................JGFFDDDSaUj~s!sNksSFGHJ..."
};
