/* XPM */
static char *_895c0f1e67743fd944c9e6497e36d5d[] = {
/* columns rows colors chars-per-pixel */
"64 64 60 1 ",
"  c black",
". c #010001",
"X c #020002",
"o c #040004",
"O c #180015",
"+ c #1A0017",
"@ c #1B0018",
"# c #1E001B",
"$ c #202020",
"% c #2C2C2C",
"& c gray19",
"* c #343434",
"= c gray22",
"- c #400000",
"; c #4C0000",
": c #580000",
"> c #640000",
", c #700000",
"< c #7C0000",
"1 c #543C1C",
"2 c #044000",
"3 c #044C00",
"4 c #045800",
"5 c #046400",
"6 c #047000",
"7 c #047C00",
"8 c #404000",
"9 c #585400",
"0 c #706C00",
"q c #744C28",
"w c #400040",
"e c #480048",
"r c #580058",
"t c #680068",
"y c #6C0070",
"u c gray25",
"i c #484848",
"p c #4C4C4C",
"a c gray33",
"s c gray36",
"d c #646464",
"f c #7C7C7C",
"g c #880000",
"h c #980000",
"j c #A40000",
"k c #B00000",
"l c #BC0000",
"z c #C80000",
"x c #D40000",
"c c #E00000",
"v c #EC0000",
"b c #FC0000",
"n c #9C4C00",
"m c #B45400",
"M c #E46C00",
"N c #049800",
"B c #848400",
"V c #9C9C00",
"C c #A800FC",
"Z c #989898",
/* pixels */
"                                                                ",
"                           @OO                  <<<<            ",
"                         o@O#O                 gh,::<           ",
"                                              kkh,--<           ",
"                                              kkh,--::<<        ",
"            jj<                              gh<,:---::<        ",
"           jllkg                             hh,:-%--;:<        ",
"           kllkkg                           hhg,--%-;:<         ",
"       ><hhkllkkkg                          hh,::%---;:         ",
"      ><hh<<hkgkkkg     vvck kbbxlj bvlg  gghg,-%---%-:         ",
"      ><hh-:<hggkkkg   kvcbch<hhhggxxlg>l>,hh,-%wyre%-:<        ",
"       >hh>:>hrrrkkkg><kccvhzk>xxhlxx<kg>;<,,-%%yyew%%:<        ",
"      ><h:h<><tywgkkk<hzzvgvzk<,hgbh>v,h>>;---%wyrww-%->        ",
"      <h<-<><rtrrwgk<<hz<j:vvzh<<vkhvz:h<>>;-%%yywww-%%><       ",
"      gh,;><$rttywgg-<gk>j<6CxhlvkhvC4<<>,>;-%%yy:ww--%->       ",
"     ,h,-><$rrttyw:44<gg>lh,,cz<;cz>:,ll>,>;-%<<:wwww-%--<      ",
"     gh--<%%r845yw%NN5<<>h>:gk->,k-><:hh:,>;%;<<:;www%-%->      ",
"    <h,-<$%%r46N65%NV04,lg;>hh>,hh>,h;,,<>;%%gg,;w;ww%%--;<     ",
"   <gh,$$%%%r5NVnN%NnnNgg,;kk<gkkkgkk<,:-;%%;gg::-www%%%-;<     ",
"  <gh,-$$%%%r5NnnN5Nn9N>>:kfi,%%%%%gia>;;;zzzj,::--w%%%%--;<    ",
"  >hh<$$8344%5Nn9N7Nn9N;;;-dfa%%%%%fZi%;;-<<<<<<<:;%%%%%%-->    ",
"   <hh<$3NN767Nn8nNnn8N45:---%%%%%%%---;>>>>>::<<<<>;%%%-->     ",
"   ><h<$4NV0NN7n895n88N5N5---%%%%%%%----;;;>>:-kkhh<<;%--:>     ",
"    :hh<470nn9898998857N0N4--=%%%%%%----;---,<hhkhh<>:%---      ",
"     :h< 4Nn8n9989888nnB9N4--a%%%%%=---;---->,<hhh<>::::--      ",
"      :4446Nn88888888888N3:;;,;ww%;>;;-;---::>,<hh<>:,g,-       ",
"       4NNNnn998888888563:>;;g;rrw;g;;---;;;::><<<<>,>,g-       ",
"       470V9888888888842:::;j;;rrw;;g;-;;;;;::>,<>>,g>>,-  -    ",
"        477799988888842,,,:hd>><<<>;ag-;;;;;--;>><:;,<<>:----   ",
"         4447798888442--:;<ghj<<<<<ggg;;;;;;;-%;;;>::>,<,:->-   ",
"           4566544422--%---;>>;;;;;>>;-;;;--;-%%;;;;>>::;g>>h   ",
"            3333332h>>---%%%%%%%%%%%%-------;%%%%%;;:>::;;gh,   ",
"            g>$%=g-<<>>------%%%%-----------%--%%%%%;;:;;;hg;   ",
"             <>;$>:;-:::%-----%%%%---------%---%%%%%%%;<gg<>>   ",
"              ;;,:-;------%%%%%%%%%%------%-%%%%%%%%%%;gkkh,>:  ",
"             hh<>>;-;%%%------%%%-----%%%%%%%%%%%%%%%> hkkh,>:  ",
"            hh<>;--%%%%-%%%%%%%%%%%%%%--%%%%---%%---   kkkg,::  ",
"           ljh>---:---%%-%----%%%%---%-%%%%------%---   kkg,::  ",
"          jlh<:-:>:-%%%%%%%%%%%-%%%%%%%%%%%-:::------   hk,::   ",
"         kczh<-:>>-%--%--%%%%-- --%%%%%--%%-:::;--:--  nbbx::   ",
"        kzcjh,:-><--::;------:-  ---%%--;---::::--::-- xMxx::   ",
"        zcchg,:-:>-;>:-------:$   --%%--:;-;:,>>--:,-- bn,h::   ",
"       kcczh<,;->--;--- ----$$$     ----:,;-><<>--:<-- xj,,::   ",
"       lcck<,;;;;--;;:-    ;;$$$      --:,:-:,>>--:>-- xj,,::   ",
"      hccckg>>;:--;;;-      ;;;$$      --::--::-------  x::::   ",
"     hkcccj:,,g--:::;-         ;;       ----->>-:;----   g::    ",
"     lczzzh,gh,-->,>-                    -->-<<,>:----          ",
"     lljjjg,hg,-->>>-                    --<><hh>:;----         ",
"     hh,hh,h,-------                      -::gkh<>:-:--         ",
"     ,,,hh,,;--;;:                         -->khg>>-:--         ",
"      ,,<<----;>>>                           -<hg>>-:--         ",
"       khk,kh;-;>                            ;;;,,,-:-          ",
"#       h<;<--::                              >>,h<---          ",
"          ;,<:,:                               >,h<:--          ",
"           lh>g;                                >hk:-           ",
"           lh>h;                                ,xlg->          ",
"           lh>h;-                              >glg,,:-         ",
"         lxlxlx>>-                             >gk-,---         ",
"         ll;l;qk>-ppppppppppppppppaaassdddddd  >gk>g---         ",
"       d 1q-n-m<>-%%%%%%%%%%&&&&&&=======uiiiaa gk,h;-d         ",
"           ddssapiu==***%%%%%%%%%%%%%%%%%=====uigk<k;-asd       ",
"             dssapiu===***&&&&&&%%%%%%%%%%%%%%&>xxkkk<-isdd     ",
"               dssaaapuuuu=======****%%%%%%%%%%kxq;>;>>-iasd    ",
"                                      dappiiiu=k<m-n-q1-upasd   "
};
