/* XPM */
static char *_cb66ea332cd43cb8a96962262e66c8f[] = {
/* columns rows colors chars-per-pixel */
"64 64 45 1 ",
"  c black",
". c #070707",
"X c gray3",
"o c #0C0C0C",
"O c #111111",
"+ c gray7",
"@ c #202020",
"# c #2C2C2C",
"$ c gray22",
"% c #400000",
"& c #4C0000",
"* c #580000",
"= c #640000",
"- c #700000",
"; c #7C0000",
": c #543C1C",
"> c #045800",
", c #047000",
"< c #744C28",
"1 c #400040",
"2 c #480048",
"3 c #580058",
"4 c #6C0070",
"5 c #484848",
"6 c gray33",
"7 c #646464",
"8 c #7C7C7C",
"9 c #880000",
"0 c #980000",
"q c #A40000",
"w c #B00000",
"e c #BC0000",
"r c #C80000",
"t c #D40000",
"y c #E00000",
"u c #EC0000",
"i c #FC0000",
"p c #FC2020",
"a c #9C4C00",
"s c #B45400",
"d c #E46C00",
"f c #840084",
"g c #9C009C",
"h c #A800FC",
"j c #989898",
/* pixels */
"++++++++++++++++++++++++++++++++++++++++++++++++++++++++++++++++",
"+++++++++++++++++++++++++++++++++++++++++++++++++;;;;+++++++++++",
"++++++++++++++++++++++++++++++++++++++++++++++++90-*;+++++++++++",
"+++++++++++++qq;+++++++++++++++++++++++++++++++9w0-%;+++++++++++",
"++++++++++++qeew9++++++++++++++++++++++++++++++0w0-%***;++++++++",
"++++++++++++weeww9++++++++++++++++++++++++++++=0;-*%%%&*;+++++++",
"++++++++*-;0weewww9++++++++++++++++++++++++++=00*%%++%&&;+++++++",
"+++++++*-;0;;0w9www9++++++++++++++++++++++++=09-%%%++&&*++++++++",
"++++++++*00%*;099www9++++++++++++++++++++++=;9-%+%%%+&&;++++++++",
"++++++++*00=*=0%=9www9=++uyr+eiiyrew+iuu++=99;%++%%%%%&&;+++++++",
"+++++++*;0*0;=;0#=9www9=upy0wtww0090upuee=;;;14+%%%+%%+%*+++++++",
"+++++++*0;%;=;;0%##9w;%wuiyw-wiiteq9iue9=&&;;443%%%++%++*;++++++",
"+++++++=0-&=;#=-*##&9%;wwuiy0w00099ete9===&%%4431%+++%%+*;;+++++",
"++++++-0-%=;##@-=%##9;0rrqr00=0tw00e090--==&%4431%++++%++%;+++++",
"++++++-0%%;###f33%##&;0rrw0ue=9;;;9t0;-;;-=&%99221+++++%+%&;++++",
"+++++=0-%;#@##g411###;9w;00riq;w00yu0=-;=-=&%99*11+++++%+%%&;+++",
"++++=00-@@@#@3gf31###;99=00y99=-;90;;=;9=-=&=991*1+++++%&+%%&;++",
"+++=00-%@@#@#fgg411###;;=0t0wr=q09ew=;w9*=&o=99*11++++++&++%%=++",
"+++=00%%-@@@3fggq3*@###-=e9uwr;==9e0=w-0%&.X999**1++++++&%%%=+++",
"++++=0-00@@%fggegq**@@@=*e*uur0;;tw0tw*0%&rrrq9**+++++++%%%%=+++",
"++++=*00*@%fggegeq-*%@@*&q;,ht0eew0th>;; %;;;;;;;*&++++%%%;+++++",
"+++++***-*%fgggeqq;*%%=9qqqq;;0;-;;-;;;;==&=%*;;;;;=&++%%%;+++++",
"++++++++**%4ggeqqqq*qq==9q-*;--*%*--=*;==*&==;00000;;&+%%;++++++",
"+++++++++-*@3fqqqqrrq;;&=9=&-09=-09=*&&=*&%%;0ww000;=*%%%;++++++",
"+++++++++*-@@@90qrrqqq0;&&=&=9%=-9%=&%&&&%%%0www00;=&&**%+++++++",
"++++++++++-@ww0;-r;000;;;**=-9=-;9=-&%%&%%%=000000;=&-9-%+++++++",
"++++++++++%0wtw;-=900=======w;--;99w-%%%%==;;;;;;;;=-=-9%+++++++",
"+++++++++++;www0;==--====**585-%%%956#%==;;;----;==-9==-%%+%++++",
"+++++++++++;www0;-===******8j$%%&&%$8$%=--;*%%&==;*&-;;=*%%%%+++",
"++++++++++9--=;;;-==****=-;5876&&*8j6#&;;*&&&%+&&&=**=-;-*%=%+++",
"+++++++++9wrw-==;-=&&&-=*&%%%%%%%%%%=%%&=&&%&%++&&&&==**&9==0+++",
"++++++++9wrw9=*;==%%%%%%**&%++++++++++&=%*%%&+++++&&==**&&90-+++",
"++++++++0ww99*w-&9%%%%%%%%%%%%%+++%%%%%%%%%%++++++++&&;&&&09&+++",
"+++++++9ww9;=ww===*&%+%%%%%%%++++++++%%%%%%++++++++++&&&&&9w&+++",
"+++-0++ww0;=ww9==**&%%+++++%%%%+++%%%%%%%+++%%%+++++++&&*;00=+++",
"+++q;00ww=;ww9==*&&%%%%%++++++++%+++++++++++%%%%++%%++=000;==+++",
"+++q;rr0-;w=9-=*&%%%%&&%%%++++%%+%%++++++%%+%**%&+%%%++0wr0-=*++",
"+++q;r0r&&*%%&&%%%*=*&%%%%%%%*%+++%%%+++%%%+%***&&+%%%+0rr0-=*++",
"++++=0;r&*%%&%%%%*=*&%%%%%%%%*+++++%%+++%%%+%****&%%%%+wrr9-**++",
"++++==rt00=&&%%%&&&&%%%%+%%%+++++++++%%%%%%%%-=*=&%*%%++wr9-**++",
"+++++9iirw0&&&%&&%%%%%%+++++++++++++++++%=%%%-===&%**%%+0w9-*+++",
"++++0-eitr0;&&%%%%%%%+++++++++++++++++++%==%%9--=&%**%%++09-*+++",
"++++ey9rirw;&&&%++++++++++++++++++++++++%=;=%;9;;&%*%%%++09**+++",
"++++ee-9riiw;&&%%+++++++++++++++++++++++%=;=%%;;=%%%%%%+009**+++",
"++++000-90rttiww;%%++++++++++++++++++++++%=%%%%%%%%%%%+aiit*++++",
"++++-00*==0ii00ww*%++++++++++++++++++++++%%=%--%=*%%%%+tdtt**+++",
"+++++--**0iii0-wa*%+++++++++++++++++++++++%=-00-=*%%%++ia-0**+++",
"+++++++-&iiqit0d-*%++++++++++++++++++++++++%9rr==*%%%%+tq--**+++",
"+++++++q;iqiq0-a-*+%+++++++++++++++++++++++%9rr==*%*%%++t****+++",
"+++++++q;eiqe---***%+++++++++++++++++++++++%9rw==*%*%%+++9***+++",
"++++++++q;eq---****%+++++++++++++++++++++++&%w9;=*%*%%++++++++++",
"+++++++++-*-+++0=%&&*%%+++++++++++++++++++++&&;9=*%*%+++++++++++",
"++++++++++++++++9-%%==-%+++++++++++++++++++++=;9=*%%%+++++++++++",
"++++++++++++++++00%%==-&+++++++++++++++++++++=;9=*%%++++++++++++",
"+++++++++++++++++e0=9&&&++++++++++++++++++++++=9=*%+++++++++++++",
"+++++++++++++++++e0=0&%++++++++++++++++++++++;-=w9%=++++++++++++",
"+++++++++++++++++e0=0&++++++++++++++++++++++;99=9--*++++++++++++",
"+++++++++++++++etetet==+++++++++++++++++++++-9w9%-%%++++++++++++",
"++++++++++++++eee&e&<w=+++++++++++++++++++++=-w9&-%+++++++++++++",
"++++++++++++++e:<%a%s;=++++++++++++++++++++++=w9&9&+++++++++++++",
"++++++++++++++++++++++++++++++++++++++++++++++w9*w&+++++++++++++",
"+++++++++++++++++++++++++++++++++++++++++++++=ww;9;;%+++++++++++",
"+++++++++++++++++++++++++++++++++++++++++++++ww<&=&==%++++++++++",
"+++++++++++++++++++++++++++++++++++++++++++++w;s%a%<:%++++++++++"
};
