/* XPM */
static char *_666b58fc0cc414ca0ee835e68b8ba1b[] = {
/* columns rows colors chars-per-pixel */
"64 64 44 1 ",
"  c gray5",
". c #101010",
"X c gray7",
"o c #131313",
"O c #202020",
"+ c #2C2C2C",
"@ c gray22",
"# c #400000",
"$ c #4C0000",
"% c #580000",
"& c #640000",
"* c #700000",
"= c #7C0000",
"- c #543C1C",
"; c #045800",
": c #047000",
"> c #744C28",
", c #400040",
"< c #480048",
"1 c #580058",
"2 c #6C0070",
"3 c #484848",
"4 c gray33",
"5 c #646464",
"6 c #7C7C7C",
"7 c #880000",
"8 c #980000",
"9 c #A40000",
"0 c #B00000",
"q c #BC0000",
"w c #C80000",
"e c #D40000",
"r c #E00000",
"t c #EC0000",
"y c #FC0000",
"u c #FC2020",
"i c #9C4C00",
"p c #B45400",
"a c #E46C00",
"s c #840084",
"d c #980088",
"f c #9C009C",
"g c #A800FC",
"h c #989898",
/* pixels */
"XXXXXXXXXXXXXX99=XXXXXXXXXXXXXXXXXXXXXXXXXXXXXXXXX=====XXXXXXXXX",
"XXXXXXXXXXXXX9qq07XXXXXXXXXXXXXXXXXXXXXXXXXXXXXXX78*%%=XXXXXXXXX",
"XXXXXXXXXXXXX0qq007XXXXXXXXXXXXXXXXXXXXXXXXXXXXX708*##=XXXXXXXXX",
"XXXXXXXXX%*880qq007XXXXXXXXXXXXXXXXXXXXXXXXXXXXX808*##%%%=XXXXXX",
"XXXXXXXX%*88==80707XXXXXXXXXXXXXXXXXXXXXXXXXXXX78=*%###$%%=XXXXX",
"XXXXXXXX%*88#%=87007XXXXXXXXXXXXXXXXXXXXXXXXX&788%##  #$$%=XXXXX",
"XXXXXXXXX%88&%&8#7007XXXXtrwXqyyrwq0XyttXXXX7787%###X.$$%=XXXXXX",
"XXXXXXXXX*8%8=&8#70007&Xtur80e008878tutqqX&7==7%X#####$$%=XXXXXX",
"XXXXXXXX*8&#=&==%+700=#0tyr0*0yyeq97ytq7&$===*#X###X####%XXXXXXX",
"XXXXXXXX=8$$=#*=%O+70#=00tyr8088877qeq7&&&$###X,21<X####%=XXXXXX",
"XXXXXXX*8&$=&+&ss1,$7=8ww9w88&8e088q878**&&$#XX22<,X##XX%=XXXXXX",
"XXXXXXX=8#=&++Ofs1,,7=8ww08tq&7===7e8=*==*&$#X,21,,XX##X#&=XXXXX",
"XXXXXX*8&#&+++2ff1,,$=70=88wy9=088rt8&*=&*&$#X22,,,XXX#XX&=XXXXX",
"XXXXX=8#=&++++2ff2,,+=77&88r77&*=78==&=7&*&$XX22%,,XXX##X#&=XXXX",
"XXXX=8*&&O+++2sff9%,++==&8e80w&987q0&=07%&$XX==%,,,,XXX#X##=XXXX",
"XXX=88*&OO+O+sffqf%%+++*&q7t0w=&&7q8&0*8#$XX$==%$,,,XXXX#X#&XXXX",
"XX*88*#OO+O+Osfffq*%+OO&%q%ttw8==e08e0%8#$XX%**$,$,,XXXXX##$=XXX",
"XX*88##*OO+O+2sdq97%8ww%$9=:ge8qq08eg;==X#888=*$#,,,XXXXX$##$=XX",
"XXX&8*88OOO+O+2d978ww9&79999==8=*==*====&&$&==%$##,XXXXXX#X##$=X",
"XXX&%88%OO+O+O+q9wwww9&&79*%=**%#%**&%=&&%$&#=8$##XXXXXXX#XX##&X",
"XXXX%%*%OOOOO+qwwww99==$&7&$*87&*87&%$$&%$##&%====&XXXXX#####&XX",
"XXXXXX**%OO008=*w9999===$$&$&7#&*7#&$#$$$###==8888==#XXX###%%&XX",
"XXXXXXX**%8ee0=*&9=======%%&*7&*=7&*$##$###&8800888=&#XX###*XXXX",
"XXXXXXX***=ee08=&9=8=&&&&&&&0=**=770*####&&=800088=&#$X###%=XXXX",
"XXXXXXXX*0=0008=*&&&&&&&&%%363*###734+#&&===888888&##$X##%=XXXXX",
"XXXXXXXX0887888=*&$$&%%%%%%6h@##$$#@6@#&**=&*8888=&##&&##%XXXXXX",
"XXXXXXX07708=====%$$$$$%&*=3654$$%6h4+$==%$&&*===&&#7&8&%XXXXXXX",
"XXXXXX070rrqq7==%%%$$$$$$$$$$$$$$$$$$$$$$$##&&&&&=%$*=*8*$XXXXXX",
"XXXXX070rrr08*&%###$$$*&%$##########&##$&$####X$$$&%%&*88&$XXXXX",
"XX77X70rrr08*&%=########%%$#XXXXXXXXXX$&#%####XX$$$*7==*88&XXXXX",
"XX8707rr088**%07*%#############XXX##########XXXXXX$&797=88&$XXXX",
"XX=8wt888=**&%X&7*%##########XXXXXXXX######XXXXXXX$$&997*8&$$$$X",
"XX0wt%%==**&%XXX&%*%%##########XXX#######XXXXXXXXXX$$&97*88&$$$X",
"XX0ew%&%*&%XXXX7**%$##XXXXXXXXXX#XXXXXXXXXX###XXXXXX$$$*88=&&$$X",
"XX0e0&=&*XXXXX7=**%$##XX#XXXXX##X##XXXXXXX######X##XXd$*w87*&%XX",
"XX7e078*$XXXX777**&$#X####X####XXX###XX##X##########Xdww887*&%XX",
"XXXee7q*$XXXX77*77*$###$$#X##%XXXXX##XX###X#$$$#####dwww88*&%%XX",
"XXX0e7e7XXXX797777*$##$$$###XXXXXXXXX##X###%&&%$##$##www87*&%XXX",
"XXX0e0y7XXXX98*997&$#$%%$###XXXXXXXXX###%%#&==&%$#%$#ww87*&%XXXX",
"XXXXweey0%=7979997%##%&$####XXXXXXXXX##%&&%&888&%#%$w887**%XXXXX",
"XXXX8yy880=9870987$#$&%$###XXXXXXXXXX##%==&&qqq=%#%w887**%XXXXXX",
"XXX8yyy8*0i978ee87##$%$####XXXXXXXXXXX##=8&#qqq=887&&77%XXXXXXXX",
"XXXyy9ye8a*9=9ee7*##$$####XXXXXXXXXXXX##&&%#qq&iyye8&&%XXXXXXXXX",
"XXXy9y98*i*X=77==%%%######XXXXXXXXXXXXX##&##==&eaee8&&&XXXXXXXXX",
"XXXqy9q***XX0=$$#**%#####XXXXXXXXXXXXXX#777#&&&yi*8&&&&XXXXXXXXX",
"XXXXq9***XXXee8&88*#%%##XXXXXXXXXXXXXXX#798&###e9**&&&&XXXXXXXXX",
"XXXXXXXXXXXXee8&88%#%%%#XXXXXXXXXXXXXXX$*08*&##%e&&&&&&XXXXXXXXX",
"XXXXXXXXXXXXX&&&&&%#%%%#XXXXXXXXXXXXXXX&$==*&##%#7&&&&XXXXXXXXXX",
"XXXXXXXXXXXXX===&&%#$%$#XXXXXXXXXXXXXXX&==&%#####XXXXXXXXXXXXXXX",
"XXXXXXXXXXXXXXe8=&%%#$##$XXXXXXXXXXXXXXX%*&%####XXXXXXXXXXXXXXXX",
"XXXXXXXXXXXXXXee=&&%####$XXXXXXXXXXXXXX&%7%#$#XXXXXXXXXXXXXXXXXX",
"XXXXXXXXXXXXXXXee=&%%###XXXXXXXXXXXXXX&&%*$*$XXXXXXXXXXXXXXXXXXX",
"XXXXXXXXXXXXXXXXXX=&%%$%#XXXXXXXXXXXXX%&*#$##XXXXXXXXXXXXXXXXXXX",
"XXXXXXXXXXXXXXXXXXX7*%#&&$XXXXXXXXXXXX%$%*#&#XXXXXXXXXXXXXXXXXXX",
"XXXXXXXXXXXXXXXXXXX8**7&$$#XXXXXXXXXXXX$$=#&$XXXXXXXXXXXXXXXXXXX",
"XXXXXXXXXXXXXXXXXXX=0*&7&$#XXXXXXXXXXXXX%7#*#XXXXXXXXXXXXXXXXXXX",
"XXXXXXXXXXXXXXXXXXXX08&7&##XXXXXXXXXXXX%==$*$#XXXXXXXXXXXXXXXXXX",
"XXXXXXXXXXXXXXXXXXXX08&7&#XXXXXXXXXXXXX%==&*&$XXXXXXXXXXXXXXXXXX",
"XXXXXXXXXXXXXXXXXXXX08&7$dXXXXXXXXXXXXX%&$&$$-XXXXXXXXXXXXXXXXXX",
"XXXXXXXXXXXXXXXXXXeree07$$XXXXXXXXXXXXX$p#i#>$XXXXXXXXXXXXXXXXXX",
"XXXXXXXXXXXXXXXXXe8e808>&$XXXXXXXXXXXXXX-#-#-XXXXXXXXXXXXXXXXXXX",
"XXXXXXXXXXXXXXXXX=->=i=p=&XXXXXXXXXXXXXXXXXXXXXXXXXXXXXXXXXXXXXX",
"XXXXXXXXXXXXXXXXXXXXXXXXXXXXXXXXXXXXXXXXXXXXXXXXXXXXXXXXXXXXXXXX",
"XXXXXXXXXXXXXXXXXXXXXXXXXXXXXXXXXXXXXXXooooXXXXXXXXXXXXXXXXXXXXX"
};
